<svg  width="603" height="600" xmlns="http://www.w3.org/2000/svg" ><path  d="
 M 369 86 C 368 87, 366, 86, 365, 87
 C 356 90, 350, 94, 345, 101
 C 339 116, 354, 125, 346, 136
 C 352 141, 352, 143, 358, 151
 C 364 152, 367, 147, 371, 147
 C 375 153, 379, 157, 378, 164
 C 378 171, 377, 177, 373, 182
 C 367 192, 357, 198, 351, 202
 C 351 208, 350, 211, 352, 213
 C 354 219, 358, 222, 362, 223
 C 362 236, 366, 245, 368, 254
 C 357 260, 348, 261, 338, 262
 C 334 256, 327, 254, 327, 249
 C 319 246, 315, 250, 310, 250
 C 300 255, 303, 260, 297, 263
 C 293 271, 301, 273, 303, 278
 C 290 292, 288, 311, 274, 322
 C 253 306, 249, 281, 237, 260
 C 236 253, 233, 249, 232, 244
 C 237 238, 244, 239, 249, 238
 C 253 229, 249, 224, 254, 218
 C 252 214, 249, 211, 246, 208
 C 248 197, 239, 188, 240, 178
 C 237 176, 236, 173, 235, 173
 C 223 179, 208, 175, 200, 183
 C 196 194, 188, 199, 188, 209
 C 197 222, 204, 237, 204, 243
 C 198 265, 183, 281, 186, 305
 C 190 327, 193, 346, 199, 365
 C 198 380, 189, 389, 190, 402
 C 194 411, 194, 424, 203, 432
 C 204 451, 211, 466, 208, 484
 C 177 478, 135, 483, 101, 476
 C 103 494, 105, 505, 102, 523
 C 112 526, 119, 526, 126, 525
 C 123 521, 114, 524, 116, 515
 C 122 509, 126, 506, 130, 501
 C 132 507, 126, 520, 134, 520
 C 167 517, 197, 521, 229, 518
 C 230 522, 228, 524, 229, 527
 C 232 529, 233, 531, 236, 530
 C 242 532, 242, 528, 246, 527
 C 252 529, 255, 533, 260, 534
 C 273 534, 287, 538, 297, 533
 C 287 529, 272, 526, 263, 516
 C 267 513, 268, 515, 270, 516
 C 274 499, 284, 488, 291, 475
 C 305 462, 315, 450, 329, 439
 C 333 433, 332, 427, 334, 423
 C 332 411, 324, 407, 317, 403
 C 294 398, 276, 390, 257, 383
 C 264 376, 250, 359, 257, 346
 C 267 344, 279, 354, 289, 345
 C 301 330, 310, 316, 322, 303
 C 321 295, 316, 291, 314, 286
 C 319 280, 319, 286, 320, 287
 C 316 281, 326, 280, 326, 275
 C 339 274, 350, 274, 362, 273
 C 364 279, 355, 283, 363, 288
 C 357 318, 341, 341, 326, 366
 C 333 370, 339, 373, 346, 375
 C 344 380, 343, 382, 342, 385
 C 352 394, 367, 393, 379, 396
 C 381 431, 375, 462, 370, 494
 C 368 506, 363, 515, 361, 525
 C 357 530, 352, 531, 349, 533
 C 355 537, 360, 535, 367, 536
 C 374 528, 378, 522, 383, 514
 C 389 517, 384, 528, 388, 528
 C 387 516, 392, 510, 393, 502
 C 390 495, 382, 493, 382, 488
 C 384 469, 395, 455, 400, 439
 C 411 457, 419, 477, 427, 496
 C 428 510, 439, 523, 427, 534
 C 434 535, 439, 531, 444, 528
 C 446 518, 445, 509, 447, 501
 C 453 501, 453, 510, 457, 511
 C 454 502, 449, 496, 450, 488
 C 444 480, 431, 486, 431, 475
 C 423 457, 425, 438, 419, 422
 C 415 412, 413, 405, 407, 398
 C 434 396, 422, 379, 455, 379
 C 451 374, 452, 370, 449, 369
 C 460 364, 466, 356, 470, 348
 C 464 341, 455, 335, 451, 329
 C 441 300, 412, 280, 404, 252
 C 411 245, 407, 247, 411, 228
 C 416 222, 417, 230, 419, 231
 C 416 226, 416, 219, 420, 214
 C 423 216, 421, 221, 425, 224
 C 429 229, 433, 226, 436, 225
 C 435 224, 431, 224, 430, 221
 C 433 212, 427, 204, 432, 197
 C 435 202, 434, 207, 436, 211
 C 439 215, 443, 213, 446, 214
 C 444 213, 442, 211, 441, 209
 C 438 205, 440, 204, 440, 201
 C 442 203, 444, 202, 445, 203
 C 441 199, 439, 194, 438, 190
 C 439 186, 439, 182, 443, 181
 C 451 182, 447, 200, 450, 190
 C 451 180, 446, 171, 439, 167
 C 442 165, 448, 164, 446, 157
 C 440 161, 436, 157, 433, 152
 C 425 140, 422, 129, 417, 118
 C 405 103, 391, 82, 371, 86" fill="rgb(4,2,2)" />
<path  d="
 M 190 115 C 188 116, 186, 115, 185, 116
 C 167 119, 153, 125, 139, 133
 C 124 143, 112, 157, 103, 171
 C 91 191, 85, 212, 87, 237
 C 87 259, 91, 278, 99, 296
 C 108 320, 120, 339, 135, 358
 C 152 377, 168, 392, 188, 405
 C 182 400, 194, 380, 198, 368
 C 191 343, 185, 320, 183, 296
 C 184 275, 199, 262, 202, 245
 C 198 237, 201, 223, 186, 216
 C 186 208, 186, 202, 189, 197
 C 197 191, 197, 179, 207, 177
 C 216 174, 226, 176, 233, 171
 C 238 173, 239, 175, 241, 178
 C 242 189, 249, 196, 248, 205
 C 249 211, 255, 213, 257, 217
 C 254 224, 254, 231, 252, 237
 C 247 242, 240, 240, 236, 242
 C 237 249, 237, 252, 236, 259
 C 251 278, 253, 304, 274, 320
 C 286 309, 289, 291, 299, 279
 C 298 274, 291, 271, 294, 263
 C 300 260, 301, 251, 311, 247
 C 310 239, 311, 230, 310, 222
 C 307 221, 305, 218, 303, 217
 C 301 210, 307, 211, 308, 214
 C 310 208, 310, 204, 310, 200
 C 298 200, 306, 188, 302, 188
 C 299 181, 302, 180, 305, 178
 C 309 176, 311, 172, 316, 174
 C 322 174, 320, 180, 323, 181
 C 326 186, 316, 192, 324, 193
 C 324 201, 312, 196, 314, 203
 C 312 210, 313, 214, 314, 217
 C 316 215, 318, 214, 321, 213
 C 322 219, 319, 223, 314, 223
 C 316 231, 314, 239, 315, 246
 C 319 245, 323, 246, 326, 245
 C 329 252, 333, 254, 336, 259
 C 347 259, 356, 258, 365, 255
 C 364 244, 360, 236, 362, 225
 C 353 221, 347, 213, 349, 205
 C 356 195, 369, 190, 372, 178
 C 377 172, 377, 166, 376, 160
 C 375 155, 373, 153, 372, 150
 C 365 150, 361, 156, 356, 152
 C 349 147, 350, 139, 345, 138
 C 347 116, 309, 152, 303, 162
 C 287 145, 270, 131, 251, 124
 C 231 115, 212, 113, 191, 115" fill="rgb(254,254,254)" />
<path  d="
 M 417 115 C 424 126, 426, 139, 434, 150
 C 437 157, 444, 158, 448, 153
 C 450 161, 446, 166, 440, 166
 C 445 169, 449, 174, 451, 178
 C 453 184, 453, 188, 451, 191
 C 451 195, 448, 196, 448, 198
 C 446 191, 448, 188, 445, 184
 C 441 185, 439, 186, 440, 189
 C 441 195, 445, 202, 452, 202
 C 449 205, 445, 205, 442, 204
 C 440 210, 446, 211, 450, 211
 C 447 217, 443, 215, 441, 216
 C 434 212, 432, 207, 432, 202
 C 432 207, 433, 214, 430, 219
 C 434 222, 436, 222, 437, 218
 C 438 220, 438, 221, 439, 223
 C 435 228, 431, 230, 428, 228
 C 422 225, 420, 221, 421, 216
 C 417 221, 420, 227, 422, 232
 C 418 235, 416, 227, 414, 229
 C 409 236, 411, 243, 413, 248
 C 408 252, 406, 242, 407, 251
 C 415 280, 442, 299, 449, 326
 C 458 335, 465, 340, 472, 344
 C 471 357, 456, 365, 452, 371
 C 474 351, 489, 329, 501, 304
 C 508 286, 513, 271, 515, 254
 C 515 240, 515, 229, 515, 218
 C 514 204, 509, 192, 504, 182
 C 499 171, 494, 162, 487, 154
 C 475 142, 463, 132, 450, 127
 C 439 121, 429, 118, 418, 116" fill="rgb(254,254,254)" />
<path  d="
 M -1 1 C 7 42, -19, 127, 31, 123
 C 38 127, 52, 130, 59, 126
 C 60 112, 63, 99, 69, 87
 C 74 74, 87, 61, 92, 57
 C 109 45, 124, 39, 143, 39
 C 144 47, 144, 56, 142, 61
 C 143 57, 143, 56, 144, 52
 C 155 57, 158, 38, 165, 47
 C 162 38, 151, 42, 145, 39
 C 143 24, 140, 12, 134, 1
 C 89 0, 45, 0, 1, 0" fill="rgb(139,43,63)" />
<path  d="
 M 390 25 C 386 39, 381, 58, 385, 74
 C 392 77, 395, 83, 403, 80
 C 405 88, 412, 88, 416, 92
 C 413 87, 425, 93, 428, 93
 C 439 99, 416, 94, 431, 98
 C 434 90, 436, 104, 438, 97
 C 446 103, 446, 110, 453, 113
 C 457 116, 465, 115, 469, 121
 C 475 125, 476, 133, 485, 138
 C 480 144, 478, 136, 477, 140
 C 477 146, 481, 138, 486, 140
 C 493 137, 495, 145, 495, 144
 C 496 152, 491, 148, 500, 157
 C 500 156, 499, 151, 503, 153
 C 506 161, 505, 165, 512, 170
 C 516 170, 516, 170, 520, 173
 C 517 190, 534, 183, 530, 201
 C 543 206, 556, 200, 568, 197
 C 579 207, 586, 214, 596, 219
 C 596 215, 591, 214, 589, 213
 C 595 205, 582, 201, 585, 194
 C 579 195, 575, 197, 571, 198
 L 569 197 L 568 196
 L 566 194 C 558 182, 553, 169, 551, 155
 C 551 147, 550, 140, 551, 134
 C 550 135, 551, 138, 550, 140
 C 548 135, 548, 133, 548, 130
 C 533 110, 517, 98, 502, 83
 C 489 77, 483, 65, 471, 61
 C 453 55, 452, 52, 439, 50
 C 436 45, 425, 41, 422, 34
 C 420 37, 401, 27, 392, 26" fill="rgb(170,23,55)" />
<path  d="
 M 77 175 C 63 187, 61, 207, 49, 224
 C 42 238, 36, 271, 31, 290
 C 26 314, 30, 364, 31, 366
 C 28 374, 33, 368, 34, 377
 C 28 391, 44, 397, 36, 408
 C 38 410, 53, 399, 66, 405
 C 74 408, 80, 414, 83, 419
 C 86 426, 86, 431, 85, 437
 C 83 445, 80, 451, 75, 455
 C 75 469, 76, 483, 77, 493
 C 78 480, 81, 473, 87, 459
 C 94 450, 101, 443, 108, 440
 C 102 440, 100, 430, 101, 423
 C 96 415, 96, 422, 95, 425
 C 94 410, 84, 402, 90, 386
 C 85 387, 88, 393, 86, 395
 C 82 362, 77, 360, 80, 317
 C 77 317, 76, 319, 74, 318
 C 75 313, 78, 315, 80, 316
 C 74 311, 69, 304, 70, 297
 C 69 290, 70, 284, 73, 280
 C 78 274, 82, 272, 86, 269
 C 88 257, 80, 248, 85, 245
 C 83 223, 87, 200, 92, 188
 C 89 187, 83, 179, 77, 175" fill="rgb(185,16,38)" />
<path  d="
 M 514 200 C 523 243, 515, 268, 521, 275
 C 516 278, 516, 265, 514, 267
 C 519 275, 518, 286, 523, 289
 C 525 314, 524, 342, 525, 365
 C 517 385, 523, 409, 514, 428
 C 520 428, 523, 430, 527, 431
 C 538 436, 543, 441, 549, 447
 C 559 417, 569, 395, 575, 353
 C 570 335, 577, 302, 570, 282
 C 566 253, 560, 242, 551, 213
 C 549 212, 550, 219, 546, 215
 C 549 210, 549, 209, 547, 207
 C 540 203, 531, 205, 518, 205" fill="rgb(185,16,38)" />
<path  d="
 M 57 130 C 49 138, 40, 139, 33, 156
 C 14 187, 15, 190, 1, 222
 C 0 289, 0, 353, 0, 419
 C 9 416, 21, 415, 31, 418
 C 34 413, 37, 411, 39, 408
 C 34 408, 36, 367, 28, 373
 C 31 355, 26, 320, 30, 289
 C 38 250, 47, 219, 64, 194
 C 70 187, 67, 178, 77, 174
 C 79 175, 76, 178, 81, 177
 C 69 164, 63, 145, 61, 129" fill="rgb(161,16,39)" />
<path  d="
 M 567 199 C 559 202, 551, 203, 543, 205
 C 554 206, 536, 207, 549, 207
 C 550 212, 545, 211, 547, 215
 C 548 213, 549, 211, 552, 212
 C 561 223, 557, 244, 567, 251
 C 566 264, 575, 290, 574, 307
 C 573 342, 581, 355, 570, 384
 C 564 403, 558, 422, 552, 441
 C 544 433, 554, 453, 545, 444
 C 548 448, 549, 451, 550, 455
 C 551 467, 551, 476, 545, 483
 C 555 490, 562, 500, 568, 505
 C 577 488, 595, 468, 599, 439
 C 601 368, 602, 296, 601, 224
 C 594 219, 579, 209, 569, 198" fill="rgb(161,16,39)" />
<path  d="
 M 519 0 C 520 7, 518, 14, 515, 20
 C 511 29, 507, 35, 501, 40
 C 494 46, 489, 50, 483, 52
 C 473 56, 463, 54, 455, 55
 C 463 54, 462, 57, 470, 57
 C 483 65, 489, 75, 502, 82
 C 520 100, 533, 109, 548, 129
 C 549 133, 549, 135, 549, 137
 C 551 121, 556, 107, 564, 93
 C 574 80, 588, 66, 600, 62
 C 626 -11, 573, -4, 519, 2" fill="rgb(137,23,56)" />
<path  d="
 M 77 314 C 71 318, 77, 317, 80, 317
 C 78 360, 82, 362, 86, 393
 C 86 391, 83, 384, 89, 384
 C 92 393, 88, 399, 90, 407
 C 93 429, 100, 412, 105, 439
 C 115 439, 132, 431, 147, 439
 C 157 442, 164, 448, 169, 456
 C 175 464, 178, 470, 179, 478
 C 189 479, 196, 485, 204, 485
 C 209 469, 203, 455, 203, 442
 C 199 428, 191, 423, 191, 411
 C 169 394, 156, 386, 142, 368
 C 127 353, 115, 334, 106, 318
 C 95 322, 82, 315, 79, 317" fill="rgb(215,16,38)" />
<path  d="
 M 360 275 C 349 275, 339, 276, 329, 277
 C 326 279, 325, 282, 323, 283
 C 330 298, 319, 294, 324, 300
 C 311 317, 301, 333, 289, 348
 C 277 353, 267, 347, 258, 346
 C 254 360, 263, 374, 260, 383
 C 277 389, 295, 397, 315, 400
 C 322 404, 329, 407, 332, 414
 C 337 422, 335, 430, 332, 437
 C 325 446, 315, 450, 311, 459
 C 333 451, 355, 441, 376, 430
 C 378 419, 377, 408, 378, 398
 C 367 397, 359, 394, 350, 392
 C 345 390, 342, 388, 339, 387
 C 341 382, 342, 380, 345, 378
 C 337 374, 331, 371, 325, 368
 C 335 348, 346, 330, 355, 311
 C 365 297, 356, 285, 361, 275" fill="rgb(254,254,254)" />
<path  d="
 M 261 54 C 240 54, 253, 59, 236, 60
 C 227 66, 219, 73, 217, 81
 C 213 77, 210, 73, 207, 69
 C 203 74, 212, 73, 211, 76
 C 201 76, 200, 80, 194, 79
 C 193 82, 192, 84, 193, 86
 C 188 85, 182, 87, 181, 84
 C 180 86, 184, 86, 182, 89
 C 168 87, 165, 97, 155, 99
 C 150 103, 145, 110, 144, 114
 C 138 118, 134, 120, 132, 113
 C 106 142, 101, 141, 77, 170
 C 82 177, 87, 181, 93, 187
 C 101 166, 116, 149, 132, 136
 C 146 126, 162, 117, 179, 115
 C 193 109, 209, 114, 221, 111
 C 257 118, 234, 118, 274, 125
 C 279 118, 293, 117, 305, 118
 C 314 98, 307, 77, 293, 65
 C 280 63, 278, 54, 268, 55
 C 266 54, 264, 54, 261, 53" fill="rgb(193,33,61)" />
<path  d="
 M 419 517 C 414 529, 398, 530, 384, 538
 C 342 546, 355, 550, 324, 556
 C 304 553, 277, 557, 264, 552
 C 234 547, 222, 539, 209, 533
 C 217 540, 230, 547, 235, 559
 C 245 578, 241, 587, 242, 598
 C 281 598, 323, 599, 363, 598
 C 382 590, 399, 587, 408, 580
 L 410 579 L 410 577 L 411 580
 L 409 582 C 411 570, 407, 559, 410, 546
 C 411 535, 415, 527, 418, 518" fill="rgb(187,16,38)" />
<path  d="
 M 546 455 C 545 463, 539, 467, 537, 473
 C 532 479, 539, 480, 544, 483
 C 542 489, 538, 491, 536, 495
 C 526 502, 515, 502, 504, 501
 C 500 508, 493, 512, 495, 517
 C 486 511, 493, 524, 483, 521
 C 475 534, 459, 539, 459, 552
 C 445 555, 422, 568, 410, 575
 C 410 581, 414, 590, 417, 597
 C 440 597, 463, 600, 483, 597
 C 508 581, 526, 556, 546, 539
 C 555 527, 558, 521, 566, 512
 C 566 502, 557, 495, 545, 485
 C 549 479, 553, 457, 547, 457" fill="rgb(170,22,58)" />
<path  d="
 M 138 40 C 130 41, 123, 42, 117, 45
 C 106 49, 97, 53, 89, 60
 C 83 67, 76, 74, 73, 80
 C 64 96, 60, 111, 62, 128
 C 79 122, 98, 146, 113, 135
 C 110 135, 111, 130, 114, 130
 C 118 128, 125, 120, 130, 115
 C 135 119, 137, 118, 143, 114
 C 144 102, 157, 99, 164, 93
 C 192 88, 236, 69, 163, 41
 C 166 43, 155, 51, 144, 54
 C 142 49, 144, 45, 144, 41
 C 141 39, 140, 39, 139, 39" fill="rgb(171,54,72)" />
<path  d="
 M 296 9 C 298 11, 310, 7, 313, 11
 C 288 12, 266, 16, 242, 18
 C 214 20, 198, 34, 170, 39
 C 181 48, 197, 55, 207, 66
 C 206 63, 219, 58, 222, 64
 C 219 61, 223, 59, 224, 58
 C 221 57, 220, 58, 216, 57
 C 232 44, 268, 45, 278, 43
 C 278 41, 281, 41, 284, 42
 C 284 52, 279, 46, 274, 46
 C 278 53, 284, 45, 280, 57
 C 320 54, 351, 61, 382, 66
 C 385 39, 398, 9, 361, 20
 C 315 17, 341, 7, 297, 9" fill="rgb(159,19,42)" />
<path  d="
 M 475 350 C 471 361, 455, 367, 455, 380
 C 439 385, 429, 400, 417, 406
 C 421 418, 425, 430, 426, 442
 C 434 451, 442, 455, 451, 457
 C 462 460, 471, 457, 480, 457
 C 483 455, 487, 454, 491, 452
 C 506 443, 515, 429, 517, 415
 C 520 400, 517, 387, 511, 377
 C 502 363, 490, 354, 478, 351" fill="rgb(226,31,53)" />
<path  d="
 M 513 428 C 507 443, 492, 453, 479, 459
 C 481 464, 477, 469, 479, 475
 C 466 475, 456, 488, 452, 486
 C 451 497, 462, 508, 462, 509
 C 460 510, 458, 514, 456, 514
 C 456 509, 449, 507, 450, 504
 C 449 510, 445, 529, 448, 529
 C 435 530, 433, 546, 426, 537
 C 428 528, 434, 514, 424, 514
 C 420 518, 417, 526, 413, 534
 C 410 548, 408, 562, 411, 573
 C 412 571, 436, 561, 443, 556
 C 452 561, 453, 543, 458, 553
 C 459 539, 476, 533, 483, 521
 C 491 524, 485, 512, 493, 520
 C 494 511, 499, 509, 501, 503
 C 507 500, 512, 501, 516, 500
 C 523 501, 526, 498, 529, 497
 C 525 498, 521, 499, 518, 500
 C 518 494, 520, 498, 517, 495
 C 521 490, 518, 496, 524, 493
 C 523 491, 522, 492, 521, 492
 C 535 484, 537, 466, 549, 453
 C 545 442, 532, 429, 516, 430" fill="rgb(193,30,60)" />
<path  d="
 M 401 443 C 397 456, 387, 469, 386, 484
 C 384 494, 396, 494, 394, 503
 C 389 512, 394, 524, 392, 531
 C 382 532, 384, 521, 384, 518
 C 379 524, 376, 532, 370, 536
 C 363 540, 356, 538, 351, 539
 C 344 538, 350, 535, 347, 534
 C 354 528, 362, 524, 361, 515
 C 356 520, 351, 523, 345, 525
 C 334 527, 323, 527, 316, 524
 C 306 521, 300, 516, 295, 509
 C 289 503, 287, 497, 285, 491
 C 277 496, 278, 515, 269, 519
 C 276 522, 287, 529, 299, 527
 C 302 533, 296, 537, 292, 538
 C 259 545, 254, 527, 228, 533
 C 222 529, 226, 523, 227, 521
 C 223 521, 222, 523, 223, 527
 C 220 525, 220, 524, 221, 523
 C 208 522, 194, 520, 183, 523
 C 221 535, 219, 541, 266, 552
 C 277 556, 304, 552, 322, 554
 C 346 545, 360, 550, 394, 533
 C 394 532, 400, 528, 400, 534
 C 440 530, 424, 481, 400, 442" fill="rgb(208,16,39)" />
<path  d="
 M 357 442 C 340 449, 324, 456, 307, 462
 C 302 468, 297, 471, 293, 475
 C 290 482, 285, 487, 287, 491
 C 289 503, 295, 510, 303, 516
 C 314 525, 325, 526, 338, 525
 C 348 524, 355, 519, 362, 514
 C 370 498, 369, 480, 373, 465
 C 367 452, 365, 451, 357, 444" fill="rgb(226,37,57)" />
<path  d="
 M 565 505 C 569 504, 569, 508, 568, 512
 C 561 513, 562, 527, 555, 523
 C 559 529, 551, 532, 549, 537
 C 530 558, 518, 566, 498, 588
 C 490 588, 487, 595, 480, 599
 C 513 599, 546, 599, 579, 599
 C 585 585, 587, 572, 588, 558
 C 587 537, 577, 515, 568, 504" fill="rgb(142,22,58)" />
<path  d="
 M 48 520 C 40 523, 33, 527, 24, 527
 C 14 527, 7, 526, 1, 523
 C 0 549, 0, 573, 0, 598
 C 43 598, 129, 603, 71, 585
 C 72 561, 59, 581, 60, 564
 C 55 564, 54, 565, 51, 564
 C 54 565, 48, 541, 57, 532
 C 49 530, 52, 520, 44, 528
 C 43 523, 44, 521, 46, 521" fill="rgb(126,18,40)" />
<path  d="
 M 409 0 C 410 9, 412, 10, 413, 19
 C 417 16, 429, 23, 439, 24
 C 447 27, 443, 27, 443, 32
 C 453 34, 453, 32, 461, 32
 C 462 36, 462, 38, 462, 40
 C 474 39, 468, 52, 474, 41
 C 493 49, 464, 47, 481, 50
 C 489 48, 497, 43, 505, 37
 C 514 25, 519, 14, 519, 1
 C 482 0, 447, 0, 411, 0" fill="rgb(147,43,73)" />
<path  d="
 M 74 468 C 75 480, 73, 490, 68, 499
 C 60 511, 51, 517, 44, 524
 C 48 527, 47, 524, 48, 523
 C 58 534, 70, 547, 83, 559
 C 84 558, 86, 557, 86, 554
 C 91 564, 91, 569, 98, 576
 C 104 581, 111, 583, 120, 585
 C 125 590, 128, 593, 132, 597
 C 137 599, 140, 598, 144, 598
 C 143 588, 141, 569, 145, 569
 C 144 571, 139, 569, 138, 568
 C 131 565, 135, 564, 129, 561
 C 134 558, 137, 565, 143, 560
 C 134 561, 134, 554, 128, 554
 C 124 551, 126, 556, 125, 557
 C 109 547, 129, 551, 115, 539
 C 119 546, 110, 548, 109, 545
 C 108 542, 105, 543, 104, 542
 C 111 539, 111, 537, 111, 532
 C 109 539, 101, 529, 107, 540
 C 97 532, 93, 528, 87, 523
 C 85 523, 86, 528, 82, 525
 C 75 496, 85, 492, 72, 475" fill="rgb(159,22,45)" />
<path  d="
 M 198 534 C 190 534, 183, 537, 176, 536
 C 143 550, 152, 574, 173, 577
 C 195 581, 186, 591, 204, 589
 C 214 596, 203, 589, 208, 597
 C 207 593, 213, 587, 213, 580
 C 212 585, 218, 582, 222, 587
 C 224 580, 232, 593, 241, 586
 C 242 578, 239, 562, 231, 554
 C 222 544, 212, 538, 202, 534" fill="rgb(191,27,62)" />
<path  d="
 M 602 62 C 590 67, 581, 74, 572, 85
 C 562 93, 557, 111, 556, 114
 L 554 115 L 554 117 L 555 116
 L 556 115 C 558 117, 567, 121, 566, 133
 C 569 132, 567, 129, 571, 130
 C 572 135, 573, 139, 574, 142
 C 581 145, 575, 141, 580, 138
 C 578 156, 602, 168, 593, 181
 C 599 181, 595, 169, 599, 174
 C 600 185, 592, 188, 586, 192
 C 595 206, 583, 213, 599, 218
 C 602 171, 601, 116, 602, 64" fill="rgb(148,42,71)" />
<path  d="
 M 286 56 C 282 60, 304, 67, 303, 78
 C 310 88, 311, 100, 311, 109
 C 318 108, 311, 109, 315, 102
 C 320 103, 323, 103, 326, 104
 C 323 106, 318, 104, 318, 108
 C 327 109, 336, 109, 339, 106
 C 342 113, 333, 112, 342, 112
 C 343 108, 339, 104, 342, 100
 C 343 96, 352, 92, 355, 87
 C 363 84, 374, 80, 384, 84
 C 385 78, 383, 74, 383, 69
 C 341 61, 334, 55, 289, 57" fill="rgb(183,16,39)" />
<path  d="
 M 39 411 C 36 413, 34, 415, 33, 418
 C -20 404, 14, 448, 18, 464
 C 18 466, 18, 459, 21, 462
 C 16 473, 31, 470, 25, 481
 C 30 483, 32, 487, 36, 489
 C 34 494, 37, 499, 35, 502
 C 36 504, 38, 498, 42, 501
 C 36 512, 56, 510, 48, 518
 C 63 509, 72, 492, 71, 483
 L 73 485
 L 72 481 C 66 478, 65, 476, 62, 464
 C 51 462, 42, 459, 34, 452
 C 28 443, 25, 431, 30, 421
 L 31 420
 L 32 417 C 36 418, 38, 420, 37, 415
 C 38 421, 52, 425, 43, 420
 C 35 423, 44, 412, 39, 413" fill="rgb(166,37,58)" />
<path  d="
 M 231 0 C 193 12, 200, 4, 188, 7
 C 187 9, 192, 7, 193, 10
 C 185 13, 179, 13, 175, 17
 C 174 13, 175, 14, 171, 13
 C 163 18, 168, 17, 171, 21
 C 158 18, 163, 21, 151, 21
 C 138 32, 157, 23, 141, 35
 C 155 40, 166, 40, 175, 45
 C 180 42, 170, 42, 169, 39
 C 183 33, 202, 31, 212, 24
 C 249 21, 255, 12, 287, 13
 C 293 -12, 247, 6, 230, -1" fill="rgb(144,23,45)" />
<path  d="
 M 519 247 C 517 257, 513, 267, 519, 276
 C 515 276, 515, 273, 514, 270
 C 512 283, 506, 298, 498, 314
 C 492 326, 484, 339, 478, 348
 C 488 352, 498, 359, 506, 369
 C 512 377, 516, 384, 518, 391
 C 518 390, 517, 387, 518, 385
 C 520 392, 519, 395, 518, 398
 C 520 388, 520, 377, 524, 368
 C 529 311, 515, 263, 519, 256" fill="rgb(206,16,39)" />
<path  d="
 M 599 440 C 598 456, 594, 454, 591, 471
 C 585 484, 573, 494, 571, 506
 C 580 520, 587, 536, 588, 555
 C 588 572, 586, 585, 580, 597
 C 588 599, 594, 599, 601, 599
 C 602 546, 601, 493, 601, 441" fill="rgb(130,16,38)" />
<path  d="
 M 0 423 C 0 454, 0, 497, 0, 518
 C 7 526, 27, 527, 34, 522
 C 42 521, 46, 519, 49, 514
 C 43 511, 40, 509, 42, 502
 C 36 497, 39, 510, 34, 503
 C 36 499, 33, 494, 35, 491
 C 23 484, 35, 475, 25, 483
 C 21 461, 3, 447, 3, 422" fill="rgb(149,37,57)" />
<path  d="
 M 0 111 C 0 147, 0, 184, 0, 221
 C 14 189, 16, 182, 33, 156
 C 38 140, 49, 136, 54, 131
 C 44 130, 35, 128, 27, 125
 C 16 122, 9, 118, 2, 112" fill="rgb(134,16,38)" />
<path  d="
 M 81 495 C 83 497, 82, 500, 83, 503
 C 77 498, 82, 518, 75, 506
 C 81 511, 81, 516, 85, 518
 C 85 520, 85, 522, 84, 524
 C 85 527, 84, 521, 87, 521
 C 94 529, 104, 537, 109, 545
 C 117 546, 113, 542, 115, 539
 C 130 549, 112, 548, 124, 556
 C 124 554, 124, 550, 128, 552
 C 133 554, 135, 561, 143, 558
 C 140 566, 133, 561, 131, 559
 C 134 563, 136, 571, 145, 567
 C 142 569, 144, 588, 145, 597
 C 178 599, 208, 598, 238, 598
 C 242 595, 237, 592, 241, 590
 C 229 593, 224, 581, 223, 589
 C 217 585, 211, 583, 217, 581
 C 213 585, 211, 589, 210, 592
 C 192 591, 194, 585, 172, 581
 C 163 568, 157, 570, 152, 564
 C 152 558, 153, 554, 157, 551
 C 151 553, 145, 555, 146, 559
 C 143 555, 145, 550, 143, 546
 C 137 547, 132, 542, 127, 540
 C 128 537, 130, 537, 133, 536
 C 116 537, 104, 526, 99, 528
 C 103 524, 87, 515, 84, 504
 C 82 498, 87, 494, 81, 497" fill="rgb(174,26,56)" />
<path  d="
 M 558 111 C 550 123, 551, 139, 552, 155
 C 555 171, 560, 187, 571, 197
 C 581 193, 589, 190, 595, 184
 C 598 181, 597, 179, 599, 177
 C 597 173, 599, 181, 596, 180
 C 596 169, 588, 171, 592, 162
 C 585 162, 582, 155, 580, 150
 C 585 148, 579, 144, 579, 141
 C 580 144, 578, 145, 574, 144
 C 573 139, 571, 136, 570, 132
 C 569 130, 570, 135, 566, 135
 C 567 119, 552, 117, 559, 111" fill="rgb(164,43,74)" />
<path  d="
 M 386 77 C 385 79, 385, 81, 385, 83
 C 402 94, 390, 88, 401, 91
 C 397 94, 412, 105, 416, 113
 C 442 115, 470, 136, 478, 140
 C 491 157, 497, 158, 507, 180
 C 504 183, 516, 192, 513, 201
 C 519 204, 525, 204, 530, 203
 C 534 184, 517, 191, 520, 174
 C 498 167, 510, 151, 494, 155
 C 503 147, 490, 143, 491, 138
 C 488 141, 484, 138, 481, 138
 C 482 136, 469, 123, 471, 124
 C 465 117, 458, 116, 455, 117
 C 446 111, 445, 104, 441, 98
 C 434 105, 435, 91, 431, 102
 C 429 97, 426, 97, 425, 98
 C 427 96, 434, 96, 429, 93
 C 422 95, 417, 86, 420, 95
 C 411 89, 405, 88, 403, 82
 C 396 83, 391, 79, 388, 76" fill="rgb(187,22,56)" />
<path  d="
 M 56 534 C 53 543, 51, 554, 52, 562
 C 66 564, 60, 576, 67, 571
 C 73 575, 77, 580, 75, 587
 C 82 588, 78, 588, 79, 584
 C 82 597, 91, 585, 89, 598
 C 103 598, 118, 599, 130, 598
 C 127 594, 124, 591, 122, 587
 C 111 584, 103, 583, 98, 577
 C 96 568, 87, 570, 89, 557
 C 85 554, 87, 560, 86, 561
 C 72 553, 66, 542, 59, 534" fill="rgb(144,23,45)" />
<path  d="
 M 110 441 C 107 443, 109, 441, 107, 444
 C 99 447, 93, 452, 89, 457
 C 86 465, 82, 469, 82, 475
 C 81 491, 81, 496, 87, 498
 C 93 503, 94, 496, 96, 499
 C 97 490, 97, 478, 98, 475
 C 116 472, 128, 482, 144, 474
 C 131 475, 146, 470, 134, 473
 C 133 467, 133, 463, 133, 459
 C 130 452, 123, 454, 120, 447
 C 124 441, 117, 439, 111, 442" fill="rgb(197,37,58)" />
<path  d="
 M 126 437 C 118 438, 104, 441, 122, 439
 C 123 444, 116, 443, 119, 446
 C 124 453, 132, 451, 133, 458
 C 134 463, 134, 467, 134, 470
 C 147 471, 131, 476, 145, 474
 C 141 477, 138, 476, 136, 478
 C 150 477, 163, 479, 177, 480
 C 177 465, 168, 452, 157, 444
 C 149 440, 143, 438, 137, 437
 C 132 436, 130, 436, 127, 436" fill="rgb(213,37,58)" />
<path  d="
 M 52 405 C 48 407, 43, 407, 39, 410
 C 39 423, 61, 427, 70, 450
 C 70 453, 72, 453, 71, 454
 L 72 457 L 71 458
 L 70 459 C 66 457, 64, 464, 60, 461
 C 66 477, 67, 474, 73, 485
 C 74 477, 74, 465, 71, 457
 C 77 453, 80, 449, 82, 445
 C 85 438, 85, 433, 84, 427
 C 83 420, 79, 415, 74, 411
 C 67 405, 61, 404, 54, 404" fill="rgb(188,37,57)" />
<path  d="
 M 315 105 C 316 110, 302, 114, 304, 127
 C 297 132, 296, 140, 287, 143
 C 292 149, 296, 153, 300, 160
 C 311 148, 325, 133, 344, 125
 C 338 122, 345, 111, 337, 114
 C 348 104, 327, 112, 320, 109
 C 315 105, 321, 104, 324, 105
 C 322 104, 320, 104, 317, 104" fill="rgb(209,16,39)" />
<path  d="
 M 285 1 C 327 25, 274, 0, 328, 10
 C 317 10, 404, 18, 379, 22
 C 391 14, 394, 7, 397, 1
 C 362 0, 329, 0, 294, 0" fill="rgb(140,16,38)" />
<path  d="
 M 32 418 C 26 428, 28, 442, 35, 450
 C 40 455, 45, 460, 51, 460
 C 59 461, 64, 460, 68, 457
 C 70 448, 65, 442, 60, 435
 C 52 427, 43, 422, 34, 419" fill="rgb(185,56,75)" />
<path  d="
 M 240 435 C 318 415, 259, 462, 243, 489
 C 246 472, 247, 452, 246, 435" fill="rgb(193,101,110)" />
<path  d="
 M 135 0 C 140 8, 142, 18, 144, 28
 C 152 27, 138, 28, 154, 19
 C 162 19, 161, 18, 168, 22
 C 170 19, 167, 18, 166, 18
 C 167 15, 169, 13, 171, 12
 C 173 12, 178, 15, 173, 16
 C 191 12, 207, 2, 225, 1
 C 197 0, 166, 0, 137, 0" fill="rgb(130,23,45)" />
<path  d="
 M 426 445 C 427 457, 430, 468, 434, 479
 C 446 480, 451, 484, 454, 485
 C 466 478, 467, 478, 474, 467
 C 477 463, 477, 460, 477, 457
 C 470 459, 462, 460, 454, 458
 C 443 456, 435, 452, 428, 447" fill="rgb(209,16,39)" />
<path  d="
 M 420 18 C 405 17, 430, 47, 443, 49
 C 456 54, 472, 55, 482, 49
 C 473 45, 483, 46, 463, 42
 C 461 39, 461, 37, 461, 34
 C 453 34, 453, 35, 444, 33
 C 442 29, 443, 24, 447, 28
 C 445 27, 442, 27, 442, 25
 C 438 24, 433, 22, 435, 27
 C 432 25, 432, 24, 433, 23
 C 427 27, 421, 21, 422, 17" fill="rgb(161,43,74)" />
<path  d="
 M 174 521 C 158 524, 147, 536, 126, 538
 C 132 542, 138, 546, 142, 546
 C 146 548, 143, 553, 145, 556
 C 156 551, 164, 541, 173, 538
 C 179 536, 182, 534, 186, 534
 C 198 534, 197, 531, 188, 534
 C 197 530, 180, 525, 183, 523
 C 179 522, 177, 521, 176, 521" fill="rgb(188,23,46)" />
<path  d="
 M 69 129 C 52 131, 74, 167, 77, 170
 C 75 167, 80, 167, 81, 164
 C 98 159, 93, 142, 103, 141
 C 93 138, 82, 130, 72, 129" fill="rgb(172,37,57)" />
<path  d="
 M 283 42 C 270 46, 235, 45, 209, 58
 C 214 56, 219, 56, 224, 57
 C 226 60, 222, 59, 222, 62
 C 200 71, 205, 56, 200, 60
 C 206 66, 209, 73, 214, 77
 C 218 70, 242, 58, 247, 58
 C 258 51, 268, 53, 278, 56
 C 285 46, 276, 56, 273, 48
 C 278 42, 284, 52, 283, 43" fill="rgb(172,24,48)" />
<path  d="
 M 88 272 C 86 271, 70, 277, 70, 291
 C 70 301, 73, 311, 82, 315
 C 81 316, 89, 292, 88, 284
 C 90 279, 91, 281, 92, 284
 C 90 280, 90, 275, 88, 271" fill="rgb(203,37,57)" />
<path  d="
 M 398 0 C 395 7, 392, 15, 388, 22
 C 401 29, 414, 30, 423, 38
 C 414 26, 408, 15, 408, 1
 C 405 0, 403, 0, 400, 0" fill="rgb(148,22,55)" />
<path  d="
 M 290 119 C 277 123, 266, 129, 264, 126
 C 274 132, 276, 135, 286, 144
 C 295 140, 318, 110, 291, 120" fill="rgb(214,22,57)" />
<path  d="
 M 410 578 C 408 586, 399, 581, 398, 588
 C 385 587, 376, 596, 365, 596
 C 382 593, 434, 612, 407, 578" fill="rgb(169,16,38)" />
<path  d="
 M 130 504 C 127 512, 121, 511, 118, 516
 C 122 520, 129, 519, 130, 525
 C 109 528, 102, 532, 137, 535
 C 147 532, 154, 529, 160, 524
 C 151 521, 139, 524, 129, 522
 C 127 516, 126, 510, 129, 507" fill="rgb(190,43,63)" />
<path  d="
 M 87 285 C 90 280, 86, 307, 85, 316
 C 89 318, 97, 318, 103, 317
 C 99 303, 92, 294, 91, 283" fill="rgb(210,37,58)" />
<path  d="
 M 249 433 C 246 446, 262, 445, 268, 450
 C 273 444, 276, 439, 282, 435
 C 271 435, 261, 434, 251, 433" fill="rgb(253,252,253)" />
<path  d="
 M 249 443 C 251 460, 247, 471, 243, 483
 C 256 468, 257, 463, 268, 455
 C 264 450, 253, 447, 251, 445" fill="rgb(231,16,38)" />
<path  d="
 M 312 176 C 308 178, 307, 179, 305, 182
 C 311 199, 301, 191, 314, 203
 C 317 193, 320, 198, 321, 185
 C 320 180, 319, 174, 313, 176" fill="rgb(1,1,1)" />
<path  d="
 M 372 434 C 367 437, 365, 440, 358, 440
 C 364 449, 369, 454, 373, 462
 C 374 454, 376, 441, 375, 433" fill="rgb(232,16,39)" />
<path  d="
 M 530 480 C 523 494, 518, 492, 519, 498
 C 526 501, 558, 482, 531, 480" fill="rgb(184,42,74)" />
<path  d="
 M 267 45 C 272 54, 235, 51, 233, 59
 C 230 51, 237, 54, 240, 53
 C 239 53, 234, 55, 234, 51
 C 245 49, 253, 48, 262, 47" fill="rgb(170,23,45)" />
<path  d="
 M 97 490 M 97 491 M 98 493
 L 97 494 C 98 496, 97, 498, 98, 500
 C 97 502, 83, 502, 85, 499
 C 90 515, 95, 519, 104, 526
 C 97 521, 103, 512, 98, 507
 C 95 511, 103, 510, 100, 515
 C 95 516, 98, 512, 96, 511
 C 93 502, 102, 499, 97, 495
 C 100 494, 103, 496, 102, 499
 C 103 496, 100, 494, 99, 492" fill="rgb(179,45,65)" />
<path  d="
 M 436 384 C 429 386, 427, 401, 407, 397
 C 410 400, 413, 402, 414, 405
 C 425 398, 434, 391, 440, 384" fill="rgb(250,249,249)" />
<path  d="
 M 267 47 C 238 49, 241, 53, 233, 56
 C 233 52, 259, 52, 269, 47" fill="rgb(169,23,44)" />
<path  d="
 M 98 494 C 103 499, 90, 507, 98, 514
 C 101 509, 102, 501, 101, 495" fill="rgb(186,43,63)" />
<path  d="
 M 109 533
 L 111 532 C 112 534, 111, 536, 112, 537
 C 104 540, 100, 529, 110, 535" fill="rgb(170,23,45)" />
<path  d="
 M 214 84 C 220 82, 218, 91, 218, 93
 C 214 93, 212, 90, 214, 86" fill="rgb(197,49,80)" />
<path  d="
 M 525 318 C 528 320, 525, 331, 527, 336
 C 525 331, 525, 326, 525, 321" fill="rgb(199,16,38)" /></svg>